<?xml version="1.0" encoding="utf-8"?>
<!-- Generator: Adobe Illustrator 19.1.0, SVG Export Plug-In . SVG Version: 6.00 Build 0)  -->
<svg version="1.1" id="Layer_1" xmlns="http://www.w3.org/2000/svg" xmlns:xlink="http://www.w3.org/1999/xlink" x="0px" y="0px"
	 viewBox="0 0 792 612" enable-background="new 0 0 792 612" xml:space="preserve">
<line fill="none" stroke="#FFFFFF" stroke-width="4" stroke-miterlimit="10" x1="462.7" y1="112.7" x2="556.7" y2="112.7"/>
<polygon fill="none" stroke="#FFFFFF" stroke-width="4" stroke-miterlimit="10" points="556.1,107.4 565.3,112.7 556.1,118 "/>
<line fill="none" stroke="#FFFFFF" stroke-width="4" stroke-miterlimit="10" x1="270.4" y1="-2.1" x2="270.4" y2="91.9"/>
<polygon fill="none" stroke="#FFFFFF" stroke-width="4" stroke-miterlimit="10" points="275.7,91.3 270.4,100.5 265.1,91.3 "/>
<line fill="none" stroke="#FFFFFF" stroke-width="4" stroke-miterlimit="10" x1="313.6" y1="614" x2="313.6" y2="513.8"/>
<polygon fill="none" stroke="#FFFFFF" stroke-width="4" stroke-miterlimit="10" points="318.9,514.4 313.6,504.6 308.3,514.4 "/>
<line fill="none" stroke="#FFFFFF" stroke-width="4" stroke-miterlimit="10" x1="608.7" y1="225" x2="558.8" y2="225"/>
<polygon fill="none" stroke="#FFFFFF" stroke-width="4" stroke-miterlimit="10" points="558.8,219.3 549.6,224.6 558.8,229.9 "/>
<line fill="none" stroke="#FFFFFF" stroke-width="4" stroke-miterlimit="10" x1="608.2" y1="258.9" x2="558.2" y2="258.9"/>
<polygon fill="none" stroke="#FFFFFF" stroke-width="4" stroke-miterlimit="10" points="558.2,253.3 549.1,258.6 558.2,263.8 "/>
<line fill="none" stroke="#FFFFFF" stroke-width="4" stroke-miterlimit="10" x1="180.7" y1="252.5" x2="211.3" y2="252.5"/>
<polygon fill="none" stroke="#FFFFFF" stroke-width="4" stroke-miterlimit="10" points="211.3,246.9 220.5,252.2 211.3,257.5 "/>
<line fill="none" stroke="#FFFFFF" stroke-width="4" stroke-miterlimit="10" x1="180.7" y1="286.5" x2="211.9" y2="286.5"/>
<polygon fill="none" stroke="#FFFFFF" stroke-width="4" stroke-miterlimit="10" points="211.9,280.8 221,286.1 211.9,291.4 "/>
<path fill="none" stroke="#FFFFFF" stroke-width="4" stroke-miterlimit="10" d="M293.1,152.6c0,0,6.1-34.6,43-39.9"/>
<polygon fill="none" stroke="#FFFFFF" stroke-width="4" stroke-miterlimit="10" points="336,107.4 345.2,112.7 336,118 "/>
<line fill="none" stroke="#FFFFFF" stroke-width="4" stroke-miterlimit="10" x1="399.2" y1="531.9" x2="399.2" y2="602.5"/>
<polygon fill="none" stroke="#FFFFFF" stroke-width="4" stroke-miterlimit="10" points="404.5,602.1 399.2,610 393.9,602.1 "/>
<path fill="none" stroke="#FFFFFF" stroke-width="4" stroke-miterlimit="10" d="M320.9,275.4c0,0-14,32.3,13.9,57"/>
<polygon fill="none" stroke="#FFFFFF" stroke-width="4" stroke-miterlimit="10" points="331.8,336.8 342.4,337.4 337.6,328 "/>
<path fill="none" stroke="#FFFFFF" stroke-width="4" stroke-miterlimit="10" d="M465.1,276c0,0,14,32.3-13.9,57"/>
<polygon fill="none" stroke="#FFFFFF" stroke-width="4" stroke-miterlimit="10" points="454.2,337.4 443.7,338 448.4,328.5 "/>
</svg>
